{
  "accessors": [
    {
      "bufferView": 2,
      "componentType": 5126,
      "count": 128,
      "max": [
        0.10000003129243851,
        2.0,
        2.0
      ],
      "min": [
        -0.09999991953372955,
        0.0,
        0.0
      ],
      "type": "VEC3"
    },
    {
      "bufferView": 2,
      "byteOffset": 1536,
      "componentType": 5126,
      "count": 128,
      "max": [
        1.0,
        1.0,
        1.0
      ],
      "min": [
        -1.0,
        -1.0,
        -1.0
      ],
      "type": "VEC3"
    },
    {
      "bufferView": 1,
      "componentType": 5126,
      "count": 128,
      "max": [
        0.9998958706855774,
        0.5619248151779175
      ],
      "min": [
        0.00010416315490147099,
        0.00010416315490147099
      ],
      "type": "VEC2"
    },
    {
      "bufferView": 0,
      "componentType": 5125,
      "count": 540,
      "type": "SCALAR"
    },
    {
      "bufferView": 2,
      "byteOffset": 3072,
      "componentType": 5126,
      "count": 1456,
      "max": [
        0.16725113987922668,
        2.0,
        2.0
      ],
      "min": [
        0.009382784366607666,
        0.0,
        0.0
      ],
      "type": "VEC3"
    },
    {
      "bufferView": 2,
      "byteOffset": 20544,
      "componentType": 5126,
      "count": 1456,
      "max": [
        1.0,
        1.0,
        1.0
      ],
      "min": [
        -0.8251987099647522,
        -1.0,
        -1.0
      ],
      "type": "VEC3"
    },
    {
      "bufferView": 1,
      "byteOffset": 1024,
      "componentType": 5126,
      "count": 1456,
      "max": [
        0.9294930696487427,
        0.9998045563697815
      ],
      "min": [
        0.00019549588614609092,
        0.00019549588614609092
      ],
      "type": "VEC2"
    },
    {
      "bufferView": 0,
      "byteOffset": 2160,
      "componentType": 5125,
      "count": 7584,
      "type": "SCALAR"
    },
    {
      "bufferView": 2,
      "byteOffset": 38016,
      "componentType": 5126,
      "count": 308,
      "max": [
        0.13400399684906006,
        1.7817716598510742,
        1.842470407485962
      ],
      "min": [
        0.1017092689871788,
        0.218228280544281,
        0.15752959251403809
      ],
      "type": "VEC3"
    },
    {
      "bufferView": 2,
      "byteOffset": 41712,
      "componentType": 5126,
      "count": 308,
      "max": [
        1.0,
        0.8291751146316528,
        0.9630385637283325
      ],
      "min": [
        0.2693639099597931,
        -0.8291751146316528,
        -0.9630385637283325
      ],
      "type": "VEC3"
    },
    {
      "bufferView": 1,
      "byteOffset": 12672,
      "componentType": 5126,
      "count": 308,
      "max": [
        0.2515246272087097,
        0.9999066591262817
      ],
      "min": [
        9.338677045889199e-05,
        9.338677045889199e-05
      ],
      "type": "VEC2"
    },
    {
      "bufferView": 0,
      "byteOffset": 32496,
      "componentType": 5125,
      "count": 1416,
      "type": "SCALAR"
    }
  ],
  "asset": {
    "extras": {
      "author": "Unity Fan youtube channel (https://sketchfab.com/unityfan777)",
      "license": "SKETCHFAB Standard (https://sketchfab.com/licenses)",
      "source": "https://sketchfab.com/3d-models/free-scifi-panel-001-public-domain-cc0-189ed1b176f04852a8126961601f95c8",
      "title": "FREE SciFi Panel 001 - public domain (CC0)"
    },
    "generator": "Sketchfab-15.50.0",
    "version": "2.0"
  },
  "bufferViews": [
    {
      "buffer": 0,
      "byteLength": 38160,
      "name": "floatBufferViews",
      "target": 34963
    },
    {
      "buffer": 0,
      "byteLength": 15136,
      "byteOffset": 38160,
      "byteStride": 8,
      "name": "floatBufferViews",
      "target": 34962
    },
    {
      "buffer": 0,
      "byteLength": 45408,
      "byteOffset": 53296,
      "byteStride": 12,
      "name": "floatBufferViews",
      "target": 34962
    }
  ],
  "buffers": [
    {
      "byteLength": 98704,
      "uri": "scene.bin"
    }
  ],
  "extensionsUsed": [
    "KHR_materials_emissive_strength"
  ],
  "materials": [
    {
      "doubleSided": true,
      "name": "plasticBlack",
      "pbrMetallicRoughness": {
        "baseColorFactor": [
          0.0,
          0.0,
          0.0,
          1.0
        ],
        "metallicFactor": 0.0
      }
    },
    {
      "doubleSided": true,
      "name": "metal",
      "pbrMetallicRoughness": {
        "baseColorFactor": [
          0.8,
          0.8,
          0.8,
          1.0
        ],
        "roughnessFactor": 0.13547385829548425
      }
    },
    {
      "doubleSided": true,
      "emissiveFactor": [
        1.0,
        0.8464433773127851,
        0.0
      ],
      "extensions": {
        "KHR_materials_emissive_strength": {
          "emissiveStrength": 1.6587472411214272
        }
      },
      "name": "lightYellow",
      "pbrMetallicRoughness": {
        "baseColorFactor": [
          1.0,
          0.6435635529447916,
          0.0,
          1.0
        ],
        "metallicFactor": 0.0,
        "roughnessFactor": 0.8040408205773457
      }
    }
  ],
  "meshes": [
    {
      "name": "SciFi_Panel_001_plasticBlack_0",
      "primitives": [
        {
          "attributes": {
            "NORMAL": 1,
            "POSITION": 0,
            "TEXCOORD_0": 2
          },
          "indices": 3,
          "material": 0,
          "mode": 4
        }
      ]
    },
    {
      "name": "SciFi_Panel_001_metal_0",
      "primitives": [
        {
          "attributes": {
            "NORMAL": 5,
            "POSITION": 4,
            "TEXCOORD_0": 6
          },
          "indices": 7,
          "material": 1,
          "mode": 4
        }
      ]
    },
    {
      "name": "SciFi_Panel_001_lightYellow_0",
      "primitives": [
        {
          "attributes": {
            "NORMAL": 9,
            "POSITION": 8,
            "TEXCOORD_0": 10
          },
          "indices": 11,
          "material": 2,
          "mode": 4
        }
      ]
    }
  ],
  "nodes": [
    {
      "children": [
        1
      ],
      "matrix": [
        1.0,
        0.0,
        0.0,
        0.0,
        0.0,
        2.220446049250313e-16,
        -1.0,
        0.0,
        0.0,
        1.0,
        2.220446049250313e-16,
        0.0,
        0.0,
        0.0,
        0.0,
        1.0
      ],
      "name": "Sketchfab_model"
    },
    {
      "children": [
        2
      ],
      "matrix": [
        1.0,
        0.0,
        0.0,
        0.0,
        0.0,
        0.0,
        1.0,
        0.0,
        0.0,
        -1.0,
        0.0,
        0.0,
        0.0,
        0.0,
        0.0,
        1.0
      ],
      "name": "1c9ae0ac65204f1fa3fa58858ec4004f.fbx"
    },
    {
      "children": [
        3
      ],
      "name": "RootNode"
    },
    {
      "children": [
        4,
        5,
        6
      ],
      "matrix": [
        7.549789959870878e-06,
        0.0,
        99.9999999999997,
        0.0,
        99.99999999999838,
        -1.6292067961387602e-05,
        -7.549789954319763e-06,
        0.0,
        1.6292067972489832e-05,
        99.99999999999866,
        -1.2212453270876722e-12,
        0.0,
        0.0,
        0.0,
        0.0,
        1.0
      ],
      "name": "SciFi_Panel_001"
    },
    {
      "mesh": 0,
      "name": "SciFi_Panel_001_plasticBlack_0"
    },
    {
      "mesh": 1,
      "name": "SciFi_Panel_001_metal_0"
    },
    {
      "mesh": 2,
      "name": "SciFi_Panel_001_lightYellow_0"
    }
  ],
  "scene": 0,
  "scenes": [
    {
      "name": "Sketchfab_Scene",
      "nodes": [
        0
      ]
    }
  ]
}
