{
  "accessors": [
    {
      "bufferView": 2,
      "componentType": 5126,
      "count": 1028,
      "max": [
        1.489749550819397,
        0.8383479118347168,
        2.0156304836273193
      ],
      "min": [
        -1.4897494316101074,
        -0.2722153067588806,
        0.874058723449707
      ],
      "type": "VEC3"
    },
    {
      "bufferView": 2,
      "byteOffset": 12336,
      "componentType": 5126,
      "count": 1028,
      "max": [
        0.9963762760162354,
        0.9958626627922058,
        0.9999674558639526
      ],
      "min": [
        -0.9963762760162354,
        -0.9958626627922058,
        -0.9999674558639526
      ],
      "type": "VEC3"
    },
    {
      "bufferView": 3,
      "componentType": 5126,
      "count": 1028,
      "max": [
        0.9900928735733032,
        0.788538932800293,
        0.64365553855896,
        1.0
      ],
      "min": [
        -0.9900927543640137,
        -0.7747156023979187,
        -0.9983443021774292,
        -1.0
      ],
      "type": "VEC4"
    },
    {
      "bufferView": 1,
      "componentType": 5126,
      "count": 1028,
      "max": [
        1.064051866531372,
        0.9260845184326172
      ],
      "min": [
        0.23358586430549622,
        0.0956183597445488
      ],
      "type": "VEC2"
    },
    {
      "bufferView": 0,
      "componentType": 5125,
      "count": 5760,
      "type": "SCALAR"
    },
    {
      "bufferView": 2,
      "byteOffset": 24672,
      "componentType": 5126,
      "count": 16285,
      "max": [
        1.9895323514938354,
        2.724278688430786,
        1.3840794563293457
      ],
      "min": [
        -1.989532232284546,
        -3.2795281410217285,
        -1.8841710090637207
      ],
      "type": "VEC3"
    },
    {
      "bufferView": 2,
      "byteOffset": 220092,
      "componentType": 5126,
      "count": 16285,
      "max": [
        0.9999524354934692,
        0.9997769594192505,
        0.9999704360961914
      ],
      "min": [
        -0.9999524354934692,
        -0.9999911785125732,
        -0.9999932050704956
      ],
      "type": "VEC3"
    },
    {
      "bufferView": 3,
      "byteOffset": 16448,
      "componentType": 5126,
      "count": 16285,
      "max": [
        0.999929666519165,
        0.999739408493042,
        0.9991376399993896,
        1.0
      ],
      "min": [
        -0.9998546838760376,
        -0.9890573620796204,
        -0.999923825263977,
        1.0
      ],
      "type": "VEC4"
    },
    {
      "bufferView": 1,
      "byteOffset": 8224,
      "componentType": 5126,
      "count": 16285,
      "max": [
        0.9979576468467712,
        0.9587090015411377
      ],
      "min": [
        0.002108129905536771,
        0.00021486476180143654
      ],
      "type": "VEC2"
    },
    {
      "bufferView": 0,
      "byteOffset": 23040,
      "componentType": 5125,
      "count": 77088,
      "type": "SCALAR"
    }
  ],
  "asset": {
    "extras": {
      "author": "skullpheonix (https://sketchfab.com/skullpheonix)",
      "license": "CC-BY-4.0 (http://creativecommons.org/licenses/by/4.0/)",
      "source": "https://sketchfab.com/3d-models/fish-318fa628797543e7a64ebaebb1066394",
      "title": "Fish"
    },
    "generator": "Sketchfab-12.68.0",
    "version": "2.0"
  },
  "bufferViews": [
    {
      "buffer": 0,
      "byteLength": 331392,
      "name": "floatBufferViews",
      "target": 34963
    },
    {
      "buffer": 0,
      "byteLength": 138504,
      "byteOffset": 331392,
      "byteStride": 8,
      "name": "floatBufferViews",
      "target": 34962
    },
    {
      "buffer": 0,
      "byteLength": 415512,
      "byteOffset": 469896,
      "byteStride": 12,
      "name": "floatBufferViews",
      "target": 34962
    },
    {
      "buffer": 0,
      "byteLength": 277008,
      "byteOffset": 885408,
      "byteStride": 16,
      "name": "floatBufferViews",
      "target": 34962
    }
  ],
  "buffers": [
    {
      "byteLength": 1162416,
      "uri": "scene.bin"
    }
  ],
  "images": [
    {
      "uri": "textures/Material.001_baseColor.png"
    },
    {
      "uri": "textures/Material.001_metallicRoughness.png"
    },
    {
      "uri": "textures/Material.001_normal.png"
    },
    {
      "uri": "textures/blue_baseColor.png"
    },
    {
      "uri": "textures/blue_normal.png"
    }
  ],
  "materials": [
    {
      "doubleSided": true,
      "name": "Material.001",
      "normalTexture": {
        "index": 2
      },
      "occlusionTexture": {
        "index": 1
      },
      "pbrMetallicRoughness": {
        "baseColorTexture": {
          "index": 0
        },
        "metallicRoughnessTexture": {
          "index": 1
        }
      }
    },
    {
      "doubleSided": true,
      "name": "blue",
      "normalTexture": {
        "index": 4
      },
      "pbrMetallicRoughness": {
        "baseColorTexture": {
          "index": 3
        },
        "metallicFactor": 0.2,
        "roughnessFactor": 0.6
      }
    }
  ],
  "meshes": [
    {
      "name": "Object_0",
      "primitives": [
        {
          "attributes": {
            "NORMAL": 1,
            "POSITION": 0,
            "TANGENT": 2,
            "TEXCOORD_0": 3
          },
          "indices": 4,
          "material": 0,
          "mode": 4
        }
      ]
    },
    {
      "name": "Object_1",
      "primitives": [
        {
          "attributes": {
            "NORMAL": 6,
            "POSITION": 5,
            "TANGENT": 7,
            "TEXCOORD_0": 8
          },
          "indices": 9,
          "material": 1,
          "mode": 4
        }
      ]
    }
  ],
  "nodes": [
    {
      "children": [
        1
      ],
      "matrix": [
        0.10000000149011612,
        0.0,
        0.0,
        0.0,
        0.0,
        2.2204460823375376e-17,
        -0.10000000149011612,
        0.0,
        0.0,
        0.10000000149011612,
        2.2204460823375376e-17,
        0.0,
        0.0,
        1.1102230246251565e-16,
        2.465190328815662e-32,
        1.0
      ],
      "name": "Sketchfab_model"
    },
    {
      "children": [
        2
      ],
      "name": "root"
    },
    {
      "children": [
        3,
        5
      ],
      "matrix": [
        1.0,
        0.0,
        0.0,
        0.0,
        0.0,
        2.220446049250313e-16,
        1.0,
        0.0,
        0.0,
        -1.0,
        2.220446049250313e-16,
        0.0,
        0.0,
        0.0,
        0.0,
        1.0
      ],
      "name": "GLTF_SceneRootNode"
    },
    {
      "children": [
        4
      ],
      "name": "Eyes_0"
    },
    {
      "mesh": 0,
      "name": "Object_4"
    },
    {
      "children": [
        6
      ],
      "matrix": [
        1.0,
        0.0,
        0.0,
        0.0,
        0.0,
        0.0,
        1.0,
        0.0,
        0.0,
        -1.0,
        0.0,
        0.0,
        0.0,
        0.0,
        0.0,
        1.0
      ],
      "name": "Fish_1"
    },
    {
      "mesh": 1,
      "name": "Object_6"
    }
  ],
  "samplers": [
    {
      "magFilter": 9729,
      "minFilter": 9987,
      "wrapS": 10497,
      "wrapT": 10497
    }
  ],
  "scene": 0,
  "scenes": [
    {
      "name": "Sketchfab_Scene",
      "nodes": [
        0
      ]
    }
  ],
  "textures": [
    {
      "sampler": 0,
      "source": 0
    },
    {
      "sampler": 0,
      "source": 1
    },
    {
      "sampler": 0,
      "source": 2
    },
    {
      "sampler": 0,
      "source": 3
    },
    {
      "sampler": 0,
      "source": 4
    }
  ]
}
