{
  "accessors": [
    {
      "bufferView": 2,
      "componentType": 5126,
      "count": 16146,
      "max": [
        29.23619842529297,
        3.4959640502929688,
        27.91073226928711
      ],
      "min": [
        -26.792068481445313,
        -7.868305206298828,
        -31.207035064697266
      ],
      "type": "VEC3"
    },
    {
      "bufferView": 2,
      "byteOffset": 193752,
      "componentType": 5126,
      "count": 16146,
      "max": [
        1.0,
        1.0,
        1.0
      ],
      "min": [
        -0.9999998807907104,
        -0.9999970197677612,
        -1.0
      ],
      "type": "VEC3"
    },
    {
      "bufferView": 3,
      "componentType": 5126,
      "count": 16146,
      "max": [
        1.0,
        1.0,
        0.9567815661430359,
        1.0
      ],
      "min": [
        -1.0,
        -0.9999985694885254,
        -0.9897026419639587,
        -1.0
      ],
      "type": "VEC4"
    },
    {
      "bufferView": 3,
      "byteOffset": 258336,
      "componentType": 5126,
      "count": 16146,
      "max": [
        0.9960784316062927,
        0.9960784316062927,
        0.9960784316062927,
        1.0
      ],
      "min": [
        0.0,
        0.0,
        0.0,
        1.0
      ],
      "type": "VEC4"
    },
    {
      "bufferView": 1,
      "componentType": 5126,
      "count": 16146,
      "max": [
        0.9997509717941284,
        0.9948729872703552
      ],
      "min": [
        0.00024399999529123306,
        0.00024500000290572643
      ],
      "type": "VEC2"
    },
    {
      "bufferView": 0,
      "componentType": 5125,
      "count": 74886,
      "type": "SCALAR"
    }
  ],
  "asset": {
    "extras": {
      "author": "Austin Beaulier (https://sketchfab.com/Austin.Beaulier)",
      "license": "SKETCHFAB Standard (https://sketchfab.com/licenses)",
      "source": "https://sketchfab.com/3d-models/crab-rock-scan-69a486940c274b32948aadaf456af36a",
      "title": "Crab Rock Scan"
    },
    "generator": "Sketchfab-15.49.0",
    "version": "2.0"
  },
  "bufferViews": [
    {
      "buffer": 0,
      "byteLength": 299544,
      "name": "floatBufferViews",
      "target": 34963
    },
    {
      "buffer": 0,
      "byteLength": 129168,
      "byteOffset": 299544,
      "byteStride": 8,
      "name": "floatBufferViews",
      "target": 34962
    },
    {
      "buffer": 0,
      "byteLength": 387504,
      "byteOffset": 428712,
      "byteStride": 12,
      "name": "floatBufferViews",
      "target": 34962
    },
    {
      "buffer": 0,
      "byteLength": 516672,
      "byteOffset": 816216,
      "byteStride": 16,
      "name": "floatBufferViews",
      "target": 34962
    }
  ],
  "buffers": [
    {
      "byteLength": 1332888,
      "uri": "scene.bin"
    }
  ],
  "images": [
    {
      "uri": "textures/leocarillo_crabrock_u1_v1_baseColor.jpeg"
    },
    {
      "uri": "textures/leocarillo_crabrock_u1_v1_normal.png"
    }
  ],
  "materials": [
    {
      "doubleSided": true,
      "emissiveFactor": [
        0.44271260845508886,
        0.44271260845508886,
        0.44271260845508886
      ],
      "emissiveTexture": {
        "index": 0
      },
      "name": "leocarillo_crabrock_u1_v1",
      "normalTexture": {
        "index": 1
      },
      "pbrMetallicRoughness": {
        "baseColorTexture": {
          "index": 0
        },
        "metallicFactor": 0.0
      }
    }
  ],
  "meshes": [
    {
      "name": "Object_0",
      "primitives": [
        {
          "attributes": {
            "COLOR_0": 3,
            "NORMAL": 1,
            "POSITION": 0,
            "TANGENT": 2,
            "TEXCOORD_0": 4
          },
          "indices": 5,
          "material": 0,
          "mode": 4
        }
      ]
    }
  ],
  "nodes": [
    {
      "children": [
        1
      ],
      "matrix": [
        4.440892098500626e-16,
        -5.551115123125783e-17,
        -1.0,
        0.0,
        0.08515400439500809,
        -0.9963678121566772,
        1.1182881017719976e-16,
        0.0,
        -0.9963678121566772,
        -0.08515400439500809,
        -2.964637434199631e-16,
        0.0,
        0.0,
        0.0,
        0.0,
        1.0
      ],
      "name": "Sketchfab_model"
    },
    {
      "children": [
        2
      ],
      "name": "leocarillo_crabrock.obj.cleaner.materialmerger.gles"
    },
    {
      "mesh": 0,
      "name": "Object_2"
    }
  ],
  "samplers": [
    {
      "magFilter": 9729,
      "minFilter": 9987,
      "wrapS": 10497,
      "wrapT": 10497
    }
  ],
  "scene": 0,
  "scenes": [
    {
      "name": "Sketchfab_Scene",
      "nodes": [
        0
      ]
    }
  ],
  "textures": [
    {
      "sampler": 0,
      "source": 0
    },
    {
      "sampler": 0,
      "source": 1
    }
  ]
}
