{
  "accessors": [
    {
      "bufferView": 2,
      "componentType": 5126,
      "count": 1088,
      "max": [
        7.973380088806152,
        2.5340746105939616e-06,
        0.47934895753860474
      ],
      "min": [
        -0.026620149612426758,
        -3.999997615814209,
        -0.22830921411514282
      ],
      "type": "VEC3"
    },
    {
      "bufferView": 2,
      "byteOffset": 13056,
      "componentType": 5126,
      "count": 1088,
      "max": [
        1.0,
        1.0,
        1.0
      ],
      "min": [
        -1.0,
        -1.0,
        -1.0
      ],
      "type": "VEC3"
    },
    {
      "bufferView": 3,
      "componentType": 5126,
      "count": 1088,
      "max": [
        1.0,
        1.0,
        1.0,
        1.0
      ],
      "min": [
        -1.0,
        -1.0,
        -1.0,
        1.0
      ],
      "type": "VEC4"
    },
    {
      "bufferView": 1,
      "componentType": 5126,
      "count": 1088,
      "max": [
        0.9960955381393433,
        0.9919278025627136
      ],
      "min": [
        0.003937473986297846,
        0.0039374628104269505
      ],
      "type": "VEC2"
    },
    {
      "bufferView": 1,
      "byteOffset": 8704,
      "componentType": 5126,
      "count": 1088,
      "max": [
        0.9960955381393433,
        0.9919278025627136
      ],
      "min": [
        0.003937473986297846,
        0.0039374628104269505
      ],
      "type": "VEC2"
    },
    {
      "bufferView": 1,
      "byteOffset": 17408,
      "componentType": 5126,
      "count": 1088,
      "max": [
        0.9960955381393433,
        0.9919278025627136
      ],
      "min": [
        0.003937473986297846,
        0.0039374628104269505
      ],
      "type": "VEC2"
    },
    {
      "bufferView": 1,
      "byteOffset": 26112,
      "componentType": 5126,
      "count": 1088,
      "max": [
        0.9960955381393433,
        0.9919278025627136
      ],
      "min": [
        0.003937473986297846,
        0.0039374628104269505
      ],
      "type": "VEC2"
    },
    {
      "bufferView": 0,
      "componentType": 5125,
      "count": 2700,
      "type": "SCALAR"
    },
    {
      "bufferView": 2,
      "byteOffset": 26112,
      "componentType": 5126,
      "count": 32,
      "max": [
        6.335733890533447,
        -0.7672275304794312,
        0.47934895753860474
      ],
      "min": [
        1.6110258102416992,
        -3.3983426094055176,
        0.47934895753860474
      ],
      "type": "VEC3"
    },
    {
      "bufferView": 2,
      "byteOffset": 26496,
      "componentType": 5126,
      "count": 32,
      "max": [
        9.851591897813705e-08,
        0.0,
        -1.0
      ],
      "min": [
        -4.9257959489068526e-08,
        0.0,
        -1.0
      ],
      "type": "VEC3"
    },
    {
      "bufferView": 3,
      "byteOffset": 17408,
      "componentType": 5126,
      "count": 32,
      "max": [
        1.0,
        1.0,
        4.9257963041782205e-08,
        1.0
      ],
      "min": [
        -1.8094531242240919e-06,
        -2.876295638998272e-06,
        -4.9257963041782205e-08,
        1.0
      ],
      "type": "VEC4"
    },
    {
      "bufferView": 1,
      "byteOffset": 34816,
      "componentType": 5126,
      "count": 32,
      "max": [
        0.23756253719329834,
        0.5386834144592285
      ],
      "min": [
        0.025456557050347328,
        0.051505133509635925
      ],
      "type": "VEC2"
    },
    {
      "bufferView": 1,
      "byteOffset": 35072,
      "componentType": 5126,
      "count": 32,
      "max": [
        0.23756253719329834,
        0.5386834144592285
      ],
      "min": [
        0.025456557050347328,
        0.051505133509635925
      ],
      "type": "VEC2"
    },
    {
      "bufferView": 1,
      "byteOffset": 35328,
      "componentType": 5126,
      "count": 32,
      "max": [
        0.23756253719329834,
        0.5386834144592285
      ],
      "min": [
        0.025456557050347328,
        0.051505133509635925
      ],
      "type": "VEC2"
    },
    {
      "bufferView": 0,
      "byteOffset": 10800,
      "componentType": 5125,
      "count": 108,
      "type": "SCALAR"
    }
  ],
  "asset": {
    "extras": {
      "author": "Sousinho (https://sketchfab.com/sousinho)",
      "license": "SKETCHFAB Standard (https://sketchfab.com/licenses)",
      "source": "https://sketchfab.com/3d-models/ceiling-window-and-frame-7eaba7ae05ed474dae0c691bf2c45e07",
      "title": "Ceiling window and frame"
    },
    "generator": "Sketchfab-15.53.0",
    "version": "2.0"
  },
  "bufferViews": [
    {
      "buffer": 0,
      "byteLength": 11232,
      "name": "floatBufferViews",
      "target": 34963
    },
    {
      "buffer": 0,
      "byteLength": 35584,
      "byteOffset": 11232,
      "byteStride": 8,
      "name": "floatBufferViews",
      "target": 34962
    },
    {
      "buffer": 0,
      "byteLength": 26880,
      "byteOffset": 46816,
      "byteStride": 12,
      "name": "floatBufferViews",
      "target": 34962
    },
    {
      "buffer": 0,
      "byteLength": 17920,
      "byteOffset": 73696,
      "byteStride": 16,
      "name": "floatBufferViews",
      "target": 34962
    }
  ],
  "buffers": [
    {
      "byteLength": 91616,
      "uri": "scene.bin"
    }
  ],
  "extensionsUsed": [
    "KHR_materials_emissive_strength"
  ],
  "images": [
    {
      "uri": "textures/T_ceiling_window_frame_baseColor.png"
    },
    {
      "uri": "textures/T_ceiling_window_frame_metallicRoughness.png"
    },
    {
      "uri": "textures/T_ceiling_window_frame_emissive.png"
    },
    {
      "uri": "textures/T_ceiling_window_frame_normal.png"
    },
    {
      "uri": "textures/T_ceiling_windows_baseColor.png"
    },
    {
      "uri": "textures/T_ceiling_windows_metallicRoughness.png"
    },
    {
      "uri": "textures/T_ceiling_windows_normal.png"
    }
  ],
  "materials": [
    {
      "doubleSided": true,
      "emissiveFactor": [
        1.0,
        1.0,
        1.0
      ],
      "emissiveTexture": {
        "index": 2
      },
      "extensions": {
        "KHR_materials_emissive_strength": {
          "emissiveStrength": 10.0
        }
      },
      "name": "T_ceiling_window_frame",
      "normalTexture": {
        "index": 3
      },
      "pbrMetallicRoughness": {
        "baseColorTexture": {
          "index": 0
        },
        "metallicRoughnessTexture": {
          "index": 1
        }
      }
    },
    {
      "alphaMode": "BLEND",
      "doubleSided": true,
      "name": "T_ceiling_windows",
      "normalTexture": {
        "index": 6
      },
      "pbrMetallicRoughness": {
        "baseColorTexture": {
          "index": 4
        },
        "metallicRoughnessTexture": {
          "index": 5
        }
      }
    }
  ],
  "meshes": [
    {
      "name": "SM_ceiling_window_T_ceiling_window_frame_0",
      "primitives": [
        {
          "attributes": {
            "NORMAL": 1,
            "POSITION": 0,
            "TANGENT": 2,
            "TEXCOORD_0": 3,
            "TEXCOORD_1": 4,
            "TEXCOORD_2": 5,
            "TEXCOORD_3": 6
          },
          "indices": 7,
          "material": 0,
          "mode": 4
        }
      ]
    },
    {
      "name": "SM_ceiling_window_T_ceiling_windows_0",
      "primitives": [
        {
          "attributes": {
            "NORMAL": 9,
            "POSITION": 8,
            "TANGENT": 10,
            "TEXCOORD_0": 11,
            "TEXCOORD_1": 12,
            "TEXCOORD_2": 13
          },
          "indices": 14,
          "material": 1,
          "mode": 4
        }
      ]
    }
  ],
  "nodes": [
    {
      "children": [
        1
      ],
      "matrix": [
        1.0,
        0.0,
        0.0,
        0.0,
        0.0,
        2.220446049250313e-16,
        -1.0,
        0.0,
        0.0,
        1.0,
        2.220446049250313e-16,
        0.0,
        0.0,
        0.0,
        0.0,
        1.0
      ],
      "name": "Sketchfab_model"
    },
    {
      "children": [
        2
      ],
      "matrix": [
        0.009999999776482582,
        0.0,
        0.0,
        0.0,
        0.0,
        0.0,
        0.009999999776482582,
        0.0,
        0.0,
        -0.009999999776482582,
        0.0,
        0.0,
        0.0,
        0.0,
        0.0,
        1.0
      ],
      "name": "d06ab0af5b8c41669e775f10bd7674c6.fbx"
    },
    {
      "children": [
        3
      ],
      "name": "RootNode"
    },
    {
      "children": [
        4,
        5
      ],
      "matrix": [
        100.0,
        0.0,
        0.0,
        0.0,
        -0.0,
        -1.629206793918314e-05,
        -99.99999999999868,
        0.0,
        0.0,
        99.99999999999868,
        -1.629206793918314e-05,
        0.0,
        -325.74151611328125,
        349.5849609375,
        305.000244140625,
        1.0
      ],
      "name": "SM_ceiling_window"
    },
    {
      "mesh": 0,
      "name": "SM_ceiling_window_T_ceiling_window_frame_0"
    },
    {
      "mesh": 1,
      "name": "SM_ceiling_window_T_ceiling_windows_0"
    }
  ],
  "samplers": [
    {
      "magFilter": 9729,
      "minFilter": 9987,
      "wrapS": 10497,
      "wrapT": 10497
    }
  ],
  "scene": 0,
  "scenes": [
    {
      "name": "Sketchfab_Scene",
      "nodes": [
        0
      ]
    }
  ],
  "textures": [
    {
      "sampler": 0,
      "source": 0
    },
    {
      "sampler": 0,
      "source": 1
    },
    {
      "sampler": 0,
      "source": 2
    },
    {
      "sampler": 0,
      "source": 3
    },
    {
      "sampler": 0,
      "source": 4
    },
    {
      "sampler": 0,
      "source": 5
    },
    {
      "sampler": 0,
      "source": 6
    }
  ]
}
