{
  "accessors": [
    {
      "bufferView": 3,
      "componentType": 5126,
      "count": 31324,
      "max": [
        0.6035221815109253,
        1.2204532623291016,
        0.9940887689590454
      ],
      "min": [
        -0.6035222411155701,
        -0.771431565284729,
        -1.6623622179031372
      ],
      "type": "VEC3"
    },
    {
      "bufferView": 3,
      "byteOffset": 375888,
      "componentType": 5126,
      "count": 31324,
      "max": [
        1.0,
        1.0,
        1.0
      ],
      "min": [
        -1.0,
        -1.0,
        -1.0
      ],
      "type": "VEC3"
    },
    {
      "bufferView": 2,
      "componentType": 5126,
      "count": 31324,
      "max": [
        0.9884060621261597,
        0.9854951500892639
      ],
      "min": [
        0.005041599273681641,
        0.005041599273681641
      ],
      "type": "VEC2"
    },
    {
      "bufferView": 1,
      "componentType": 5125,
      "count": 150210,
      "type": "SCALAR"
    },
    {
      "bufferView": 3,
      "byteOffset": 751776,
      "componentType": 5126,
      "count": 7573,
      "max": [
        0.5103477239608765,
        0.32823410630226135,
        0.5942584872245789
      ],
      "min": [
        -0.5103477835655212,
        -0.317354291677475,
        0.020306896418333054
      ],
      "type": "VEC3"
    },
    {
      "bufferView": 3,
      "byteOffset": 842652,
      "componentType": 5126,
      "count": 7573,
      "max": [
        0.9999462962150574,
        0.9987038969993591,
        0.9988491535186768
      ],
      "min": [
        -0.9999463558197021,
        -0.9085532426834106,
        -0.9281522035598755
      ],
      "type": "VEC3"
    },
    {
      "bufferView": 2,
      "byteOffset": 250592,
      "componentType": 5126,
      "count": 7573,
      "max": [
        0.9949582815170288,
        0.9920324087142944
      ],
      "min": [
        0.05168071389198303,
        0.0050416141748428345
      ],
      "type": "VEC2"
    },
    {
      "bufferView": 1,
      "byteOffset": 600840,
      "componentType": 5125,
      "count": 37386,
      "type": "SCALAR"
    },
    {
      "bufferView": 5,
      "componentType": 5126,
      "count": 6,
      "max": [
        1.0,
        0.0,
        0.0,
        0.0,
        0.0,
        1.0,
        1.0,
        0.0,
        0.0,
        0.0,
        1.0,
        0.0,
        2.50823025764029e-16,
        1.1296064853668213,
        0.0,
        1.0
      ],
      "min": [
        1.0,
        -2.220446049250313e-16,
        0.0,
        0.0,
        0.0,
        0.0,
        0.0,
        0.0,
        -2.220446049250313e-16,
        -1.0,
        0.0,
        0.0,
        0.0,
        -1.1987295150756836,
        0.0,
        1.0
      ],
      "type": "MAT4"
    },
    {
      "bufferView": 0,
      "componentType": 5123,
      "count": 31324,
      "type": "VEC4"
    },
    {
      "bufferView": 4,
      "componentType": 5126,
      "count": 31324,
      "max": [
        1.0,
        0.4999522268772125,
        0.13339494168758392,
        0.0
      ],
      "min": [
        0.490140825510025,
        0.0,
        0.0,
        0.0
      ],
      "type": "VEC4"
    },
    {
      "bufferView": 0,
      "byteOffset": 250592,
      "componentType": 5123,
      "count": 7573,
      "type": "VEC4"
    },
    {
      "bufferView": 4,
      "byteOffset": 501184,
      "componentType": 5126,
      "count": 7573,
      "max": [
        1.0,
        0.333721786737442,
        0.08435362577438354,
        0.0
      ],
      "min": [
        0.6662781834602356,
        0.0,
        0.0,
        0.0
      ],
      "type": "VEC4"
    },
    {
      "bufferView": 6,
      "componentType": 5126,
      "count": 31,
      "max": [
        10.0
      ],
      "min": [
        0.03333333507180214
      ],
      "type": "SCALAR"
    },
    {
      "bufferView": 8,
      "componentType": 5126,
      "count": 31,
      "max": [
        -0.696384608745575,
        0.12267221510410309,
        0.12267221510410309,
        0.7071067690849304
      ],
      "min": [
        -0.7071067690849304,
        -0.12267223000526428,
        -0.12267223000526428,
        0.696384608745575
      ],
      "type": "VEC4"
    },
    {
      "bufferView": 6,
      "byteOffset": 124,
      "componentType": 5126,
      "count": 21,
      "max": [
        10.0
      ],
      "min": [
        0.03333333507180214
      ],
      "type": "SCALAR"
    },
    {
      "bufferView": 7,
      "componentType": 5126,
      "count": 21,
      "max": [
        1.0,
        1.0,
        1.0
      ],
      "min": [
        0.9999999403953552,
        0.9999999403953552,
        1.0
      ],
      "type": "VEC3"
    },
    {
      "bufferView": 6,
      "byteOffset": 208,
      "componentType": 5126,
      "count": 23,
      "max": [
        10.0
      ],
      "min": [
        0.03333333507180214
      ],
      "type": "SCALAR"
    },
    {
      "bufferView": 7,
      "byteOffset": 252,
      "componentType": 5126,
      "count": 23,
      "max": [
        3.725290298461914e-09,
        0.582084059715271,
        0.0
      ],
      "min": [
        -2.60770320892334e-08,
        0.5820839405059814,
        0.0
      ],
      "type": "VEC3"
    },
    {
      "bufferView": 6,
      "byteOffset": 300,
      "componentType": 5126,
      "count": 300,
      "max": [
        10.0
      ],
      "min": [
        0.03333333507180214
      ],
      "type": "SCALAR"
    },
    {
      "bufferView": 8,
      "byteOffset": 496,
      "componentType": 5126,
      "count": 300,
      "max": [
        0.0,
        0.0,
        0.14618796110153198,
        1.0
      ],
      "min": [
        0.0,
        0.0,
        -0.1453840434551239,
        0.9892568588256836
      ],
      "type": "VEC4"
    },
    {
      "bufferView": 6,
      "byteOffset": 1500,
      "componentType": 5126,
      "count": 240,
      "max": [
        10.0
      ],
      "min": [
        0.03333333507180214
      ],
      "type": "SCALAR"
    },
    {
      "bufferView": 7,
      "byteOffset": 528,
      "componentType": 5126,
      "count": 240,
      "max": [
        1.0000003576278687,
        1.0000003576278687,
        1.0
      ],
      "min": [
        0.9999997019767761,
        0.9999997019767761,
        1.0
      ],
      "type": "VEC3"
    },
    {
      "bufferView": 6,
      "byteOffset": 2460,
      "componentType": 5126,
      "count": 236,
      "max": [
        10.0
      ],
      "min": [
        0.03333333507180214
      ],
      "type": "SCALAR"
    },
    {
      "bufferView": 7,
      "byteOffset": 3408,
      "componentType": 5126,
      "count": 236,
      "max": [
        9.685754776000977e-08,
        0.5820841193199158,
        0.0
      ],
      "min": [
        -9.685754776000977e-08,
        0.5820838809013367,
        0.0
      ],
      "type": "VEC3"
    },
    {
      "bufferView": 6,
      "byteOffset": 3404,
      "componentType": 5126,
      "count": 300,
      "max": [
        10.0
      ],
      "min": [
        0.03333333507180214
      ],
      "type": "SCALAR"
    },
    {
      "bufferView": 8,
      "byteOffset": 5296,
      "componentType": 5126,
      "count": 300,
      "max": [
        0.0,
        0.0,
        0.23398512601852417,
        1.0
      ],
      "min": [
        0.0,
        0.0,
        -0.23192384839057922,
        0.9722402095794678
      ],
      "type": "VEC4"
    },
    {
      "bufferView": 6,
      "byteOffset": 4604,
      "componentType": 5126,
      "count": 275,
      "max": [
        10.0
      ],
      "min": [
        0.03333333507180214
      ],
      "type": "SCALAR"
    },
    {
      "bufferView": 7,
      "byteOffset": 6240,
      "componentType": 5126,
      "count": 275,
      "max": [
        1.0000003576278687,
        1.0000003576278687,
        1.0
      ],
      "min": [
        0.9999995827674866,
        0.9999995827674866,
        1.0
      ],
      "type": "VEC3"
    },
    {
      "bufferView": 6,
      "byteOffset": 5704,
      "componentType": 5126,
      "count": 283,
      "max": [
        10.0
      ],
      "min": [
        0.03333333507180214
      ],
      "type": "SCALAR"
    },
    {
      "bufferView": 7,
      "byteOffset": 9540,
      "componentType": 5126,
      "count": 283,
      "max": [
        1.1920928955078125e-07,
        0.5820841789245605,
        0.0
      ],
      "min": [
        -1.1920928955078125e-07,
        0.5820838212966919,
        0.0
      ],
      "type": "VEC3"
    },
    {
      "bufferView": 6,
      "byteOffset": 6836,
      "componentType": 5126,
      "count": 300,
      "max": [
        10.0
      ],
      "min": [
        0.03333333507180214
      ],
      "type": "SCALAR"
    },
    {
      "bufferView": 8,
      "byteOffset": 10096,
      "componentType": 5126,
      "count": 300,
      "max": [
        0.0,
        0.0,
        0.29756787419319153,
        1.0
      ],
      "min": [
        0.0,
        0.0,
        -0.29619890451431274,
        0.9547006487846375
      ],
      "type": "VEC4"
    },
    {
      "bufferView": 6,
      "byteOffset": 8036,
      "componentType": 5126,
      "count": 283,
      "max": [
        10.0
      ],
      "min": [
        0.03333333507180214
      ],
      "type": "SCALAR"
    },
    {
      "bufferView": 7,
      "byteOffset": 12936,
      "componentType": 5126,
      "count": 283,
      "max": [
        1.0000003576278687,
        1.0000003576278687,
        1.0
      ],
      "min": [
        0.9999997019767761,
        0.9999997019767761,
        1.0
      ],
      "type": "VEC3"
    },
    {
      "bufferView": 6,
      "byteOffset": 9168,
      "componentType": 5126,
      "count": 273,
      "max": [
        10.0
      ],
      "min": [
        0.03333333507180214
      ],
      "type": "SCALAR"
    },
    {
      "bufferView": 7,
      "byteOffset": 16332,
      "componentType": 5126,
      "count": 273,
      "max": [
        2.384185791015625e-07,
        0.5820841789245605,
        0.0
      ],
      "min": [
        -2.384185791015625e-07,
        0.5820837020874023,
        0.0
      ],
      "type": "VEC3"
    },
    {
      "bufferView": 6,
      "byteOffset": 10260,
      "componentType": 5126,
      "count": 300,
      "max": [
        10.0
      ],
      "min": [
        0.03333333507180214
      ],
      "type": "SCALAR"
    },
    {
      "bufferView": 8,
      "byteOffset": 14896,
      "componentType": 5126,
      "count": 300,
      "max": [
        0.0,
        0.0,
        0.3279574513435364,
        1.0
      ],
      "min": [
        0.0,
        0.0,
        -0.32657554745674133,
        0.9446924924850464
      ],
      "type": "VEC4"
    },
    {
      "bufferView": 6,
      "byteOffset": 11460,
      "componentType": 5126,
      "count": 282,
      "max": [
        10.0
      ],
      "min": [
        0.03333333507180214
      ],
      "type": "SCALAR"
    },
    {
      "bufferView": 7,
      "byteOffset": 19608,
      "componentType": 5126,
      "count": 282,
      "max": [
        1.000000238418579,
        1.000000238418579,
        1.0
      ],
      "min": [
        0.9999997615814209,
        0.9999997615814209,
        1.0
      ],
      "type": "VEC3"
    }
  ],
  "animations": [
    {
      "channels": [
        {
          "sampler": 0,
          "target": {
            "node": 9,
            "path": "rotation"
          }
        },
        {
          "sampler": 1,
          "target": {
            "node": 9,
            "path": "scale"
          }
        },
        {
          "sampler": 2,
          "target": {
            "node": 10,
            "path": "translation"
          }
        },
        {
          "sampler": 3,
          "target": {
            "node": 10,
            "path": "rotation"
          }
        },
        {
          "sampler": 4,
          "target": {
            "node": 10,
            "path": "scale"
          }
        },
        {
          "sampler": 5,
          "target": {
            "node": 11,
            "path": "translation"
          }
        },
        {
          "sampler": 6,
          "target": {
            "node": 11,
            "path": "rotation"
          }
        },
        {
          "sampler": 7,
          "target": {
            "node": 11,
            "path": "scale"
          }
        },
        {
          "sampler": 8,
          "target": {
            "node": 12,
            "path": "translation"
          }
        },
        {
          "sampler": 9,
          "target": {
            "node": 12,
            "path": "rotation"
          }
        },
        {
          "sampler": 10,
          "target": {
            "node": 12,
            "path": "scale"
          }
        },
        {
          "sampler": 11,
          "target": {
            "node": 13,
            "path": "translation"
          }
        },
        {
          "sampler": 12,
          "target": {
            "node": 13,
            "path": "rotation"
          }
        },
        {
          "sampler": 13,
          "target": {
            "node": 13,
            "path": "scale"
          }
        }
      ],
      "name": "ArmatureAction",
      "samplers": [
        {
          "input": 13,
          "interpolation": "LINEAR",
          "output": 14
        },
        {
          "input": 15,
          "interpolation": "LINEAR",
          "output": 16
        },
        {
          "input": 17,
          "interpolation": "LINEAR",
          "output": 18
        },
        {
          "input": 19,
          "interpolation": "LINEAR",
          "output": 20
        },
        {
          "input": 21,
          "interpolation": "LINEAR",
          "output": 22
        },
        {
          "input": 23,
          "interpolation": "LINEAR",
          "output": 24
        },
        {
          "input": 25,
          "interpolation": "LINEAR",
          "output": 26
        },
        {
          "input": 27,
          "interpolation": "LINEAR",
          "output": 28
        },
        {
          "input": 29,
          "interpolation": "LINEAR",
          "output": 30
        },
        {
          "input": 31,
          "interpolation": "LINEAR",
          "output": 32
        },
        {
          "input": 33,
          "interpolation": "LINEAR",
          "output": 34
        },
        {
          "input": 35,
          "interpolation": "LINEAR",
          "output": 36
        },
        {
          "input": 37,
          "interpolation": "LINEAR",
          "output": 38
        },
        {
          "input": 39,
          "interpolation": "LINEAR",
          "output": 40
        }
      ]
    }
  ],
  "asset": {
    "extras": {
      "author": "Joey Carlino (https://sketchfab.com/joeycarlino)",
      "license": "CC-BY-4.0 (http://creativecommons.org/licenses/by/4.0/)",
      "source": "https://sketchfab.com/3d-models/fish-2b7f796c32764f4b82507e8e60f689bb",
      "title": "Fish"
    },
    "generator": "Sketchfab-14.38.0",
    "version": "2.0"
  },
  "bufferViews": [
    {
      "buffer": 0,
      "byteLength": 311176,
      "byteStride": 8,
      "name": "shortBufferViews",
      "target": 34962
    },
    {
      "buffer": 0,
      "byteLength": 750384,
      "byteOffset": 311176,
      "name": "floatBufferViews",
      "target": 34963
    },
    {
      "buffer": 0,
      "byteLength": 311176,
      "byteOffset": 1061560,
      "byteStride": 8,
      "name": "floatBufferViews",
      "target": 34962
    },
    {
      "buffer": 0,
      "byteLength": 933528,
      "byteOffset": 1372736,
      "byteStride": 12,
      "name": "floatBufferViews",
      "target": 34962
    },
    {
      "buffer": 0,
      "byteLength": 622352,
      "byteOffset": 2306264,
      "byteStride": 16,
      "name": "floatBufferViews",
      "target": 34962
    },
    {
      "buffer": 0,
      "byteLength": 384,
      "byteOffset": 2928616,
      "name": "floatBufferViews"
    },
    {
      "buffer": 0,
      "byteLength": 12588,
      "byteOffset": 2929000,
      "name": "floatBufferViews"
    },
    {
      "buffer": 0,
      "byteLength": 22992,
      "byteOffset": 2941588,
      "byteStride": 12,
      "name": "floatBufferViews"
    },
    {
      "buffer": 0,
      "byteLength": 19696,
      "byteOffset": 2964580,
      "byteStride": 16,
      "name": "floatBufferViews"
    }
  ],
  "buffers": [
    {
      "byteLength": 2984276,
      "uri": "scene.bin"
    }
  ],
  "images": [
    {
      "uri": "textures/material_baseColor.png"
    }
  ],
  "materials": [
    {
      "doubleSided": true,
      "name": "material_0",
      "pbrMetallicRoughness": {
        "metallicFactor": 0.0,
        "roughnessFactor": 0.6
      }
    },
    {
      "doubleSided": true,
      "name": "material",
      "pbrMetallicRoughness": {
        "baseColorTexture": {
          "index": 0
        },
        "metallicFactor": 0.0,
        "roughnessFactor": 0.5840054905960949
      }
    }
  ],
  "meshes": [
    {
      "name": "Object_0",
      "primitives": [
        {
          "attributes": {
            "JOINTS_0": 9,
            "NORMAL": 1,
            "POSITION": 0,
            "TEXCOORD_0": 2,
            "WEIGHTS_0": 10
          },
          "indices": 3,
          "material": 1,
          "mode": 4
        }
      ]
    },
    {
      "name": "Object_1",
      "primitives": [
        {
          "attributes": {
            "JOINTS_0": 11,
            "NORMAL": 5,
            "POSITION": 4,
            "TEXCOORD_0": 6,
            "WEIGHTS_0": 12
          },
          "indices": 7,
          "material": 0,
          "mode": 4
        }
      ]
    }
  ],
  "nodes": [
    {
      "children": [
        1
      ],
      "matrix": [
        1.0,
        0.0,
        0.0,
        0.0,
        0.0,
        2.220446049250313e-16,
        -1.0,
        0.0,
        0.0,
        1.0,
        2.220446049250313e-16,
        0.0,
        0.0,
        0.0,
        0.0,
        1.0
      ],
      "name": "Sketchfab_model"
    },
    {
      "children": [
        2
      ],
      "name": "root"
    },
    {
      "children": [
        3
      ],
      "matrix": [
        1.0,
        0.0,
        0.0,
        0.0,
        0.0,
        2.220446049250313e-16,
        1.0,
        0.0,
        0.0,
        -1.0,
        2.220446049250313e-16,
        0.0,
        0.0,
        0.0,
        0.0,
        1.0
      ],
      "name": "GLTF_SceneRootNode"
    },
    {
      "children": [
        4
      ],
      "matrix": [
        1.0,
        0.0,
        0.0,
        0.0,
        0.0,
        1.0,
        0.0,
        0.0,
        0.0,
        0.0,
        1.0,
        0.0,
        0.0,
        0.0,
        1.0,
        1.0
      ],
      "name": "Armature_6"
    },
    {
      "children": [
        5,
        7,
        8,
        6
      ],
      "name": "GLTF_created_0"
    },
    {
      "children": [
        9
      ],
      "name": "GLTF_created_0_rootJoint"
    },
    {
      "name": "cute fish_5"
    },
    {
      "mesh": 0,
      "name": "Object_7",
      "skin": 0
    },
    {
      "mesh": 1,
      "name": "Object_8",
      "skin": 0
    },
    {
      "children": [
        10
      ],
      "name": "Bone_4",
      "rotation": [
        -0.696384608745575,
        0.12267223000526428,
        0.12267223000526428,
        0.696384608745575
      ],
      "translation": [
        0.0,
        0.0,
        0.1296064853668213
      ]
    },
    {
      "children": [
        11
      ],
      "name": "Bone.004_3",
      "translation": [
        0.0,
        0.5820840001106262,
        0.0
      ]
    },
    {
      "children": [
        12
      ],
      "name": "Bone.003_2",
      "translation": [
        0.0,
        0.5820840001106262,
        0.0
      ]
    },
    {
      "children": [
        13
      ],
      "name": "Bone.002_1",
      "translation": [
        0.0,
        0.582084059715271,
        0.0
      ]
    },
    {
      "name": "Bone.001_0",
      "translation": [
        0.0,
        0.5820839405059814,
        0.0
      ]
    }
  ],
  "samplers": [
    {
      "magFilter": 9729,
      "minFilter": 9987,
      "wrapS": 10497,
      "wrapT": 10497
    }
  ],
  "scene": 0,
  "scenes": [
    {
      "name": "Sketchfab_Scene",
      "nodes": [
        0
      ]
    }
  ],
  "skins": [
    {
      "inverseBindMatrices": 8,
      "joints": [
        5,
        9,
        10,
        11,
        12,
        13
      ],
      "skeleton": 5
    }
  ],
  "textures": [
    {
      "sampler": 0,
      "source": 0
    }
  ]
}
