{
  "accessors": [
    {
      "bufferView": 2,
      "componentType": 5126,
      "count": 65532,
      "max": [
        0.32908228039741516,
        0.23805347084999084,
        0.46803948283195496
      ],
      "min": [
        -0.32025566697120667,
        -0.24787874519824982,
        0.00016301868890877813
      ],
      "type": "VEC3"
    },
    {
      "bufferView": 2,
      "byteOffset": 786384,
      "componentType": 5126,
      "count": 65532,
      "max": [
        0.9999744892120361,
        0.999975860118866,
        0.9999694228172302
      ],
      "min": [
        -0.9999785423278809,
        -0.999991774559021,
        -0.9999932646751404
      ],
      "type": "VEC3"
    },
    {
      "bufferView": 1,
      "componentType": 5126,
      "count": 65532,
      "max": [
        0.9995543956756592,
        0.9995864033699036
      ],
      "min": [
        0.00019859657913912088,
        0.00019859657913912088
      ],
      "type": "VEC2"
    },
    {
      "bufferView": 0,
      "componentType": 5125,
      "count": 329688,
      "type": "SCALAR"
    },
    {
      "bufferView": 2,
      "byteOffset": 1572768,
      "componentType": 5126,
      "count": 65532,
      "max": [
        0.32858526706695557,
        0.2365124225616455,
        0.46263688802719116
      ],
      "min": [
        -0.32220715284347534,
        -0.24460357427597046,
        0.00016301868890877813
      ],
      "type": "VEC3"
    },
    {
      "bufferView": 2,
      "byteOffset": 2359152,
      "componentType": 5126,
      "count": 65532,
      "max": [
        0.9999414682388306,
        0.9999629855155945,
        0.9999976754188538
      ],
      "min": [
        -0.9999785423278809,
        -0.9999926090240479,
        -0.9998763203620911
      ],
      "type": "VEC3"
    },
    {
      "bufferView": 1,
      "byteOffset": 524256,
      "componentType": 5126,
      "count": 65532,
      "max": [
        0.9879587292671204,
        0.9973730444908142
      ],
      "min": [
        6.619885971304029e-05,
        6.619885971304029e-05
      ],
      "type": "VEC2"
    },
    {
      "bufferView": 0,
      "byteOffset": 1318752,
      "componentType": 5125,
      "count": 351486,
      "type": "SCALAR"
    },
    {
      "bufferView": 2,
      "byteOffset": 3145536,
      "componentType": 5126,
      "count": 60514,
      "max": [
        0.31104251742362976,
        0.2394733726978302,
        0.468051552772522
      ],
      "min": [
        -0.3234438896179199,
        -0.24337029457092285,
        -1.4901160305669237e-08
      ],
      "type": "VEC3"
    },
    {
      "bufferView": 2,
      "byteOffset": 3871704,
      "componentType": 5126,
      "count": 60514,
      "max": [
        0.9998698234558105,
        0.9999629855155945,
        0.9999523162841797
      ],
      "min": [
        -0.9999811053276062,
        -0.9999946355819702,
        -0.9999590516090393
      ],
      "type": "VEC3"
    },
    {
      "bufferView": 1,
      "byteOffset": 1048512,
      "componentType": 5126,
      "count": 60514,
      "max": [
        0.9994320273399353,
        0.9995245337486267
      ],
      "min": [
        0.00019859657913912088,
        0.0003309943131171167
      ],
      "type": "VEC2"
    },
    {
      "bufferView": 0,
      "byteOffset": 2724696,
      "componentType": 5125,
      "count": 312144,
      "type": "SCALAR"
    }
  ],
  "asset": {
    "extras": {
      "author": "a-python-script (https://sketchfab.com/a-python-script)",
      "license": "SKETCHFAB Standard (https://sketchfab.com/licenses)",
      "source": "https://sketchfab.com/3d-models/3d-scanned-shell-iphone-15-pro-realitykit-07ad6f7777ad453eab8a960f2d78e457",
      "title": "3D Scanned Shell | iPhone 15 Pro | RealityKit"
    },
    "generator": "Sketchfab-16.2.0",
    "version": "2.0"
  },
  "bufferViews": [
    {
      "buffer": 0,
      "byteLength": 3973272,
      "name": "floatBufferViews",
      "target": 34963
    },
    {
      "buffer": 0,
      "byteLength": 1532624,
      "byteOffset": 3973272,
      "byteStride": 8,
      "name": "floatBufferViews",
      "target": 34962
    },
    {
      "buffer": 0,
      "byteLength": 4597872,
      "byteOffset": 5505896,
      "byteStride": 12,
      "name": "floatBufferViews",
      "target": 34962
    }
  ],
  "buffers": [
    {
      "byteLength": 10103768,
      "uri": "scene.bin"
    }
  ],
  "images": [
    {
      "uri": "textures/texture_0_baseColor.png"
    },
    {
      "uri": "textures/texture_0_metallicRoughness.png"
    }
  ],
  "materials": [
    {
      "doubleSided": true,
      "name": "texture_0",
      "pbrMetallicRoughness": {
        "baseColorTexture": {
          "index": 0
        },
        "metallicFactor": 0.0,
        "metallicRoughnessTexture": {
          "index": 1
        },
        "roughnessFactor": 0.9554314832197583
      }
    }
  ],
  "meshes": [
    {
      "name": "Object_0",
      "primitives": [
        {
          "attributes": {
            "NORMAL": 1,
            "POSITION": 0,
            "TEXCOORD_0": 2
          },
          "indices": 3,
          "material": 0,
          "mode": 4
        }
      ]
    },
    {
      "name": "Object_1",
      "primitives": [
        {
          "attributes": {
            "NORMAL": 5,
            "POSITION": 4,
            "TEXCOORD_0": 6
          },
          "indices": 7,
          "material": 0,
          "mode": 4
        }
      ]
    },
    {
      "name": "Object_2",
      "primitives": [
        {
          "attributes": {
            "NORMAL": 9,
            "POSITION": 8,
            "TEXCOORD_0": 10
          },
          "indices": 11,
          "material": 0,
          "mode": 4
        }
      ]
    }
  ],
  "nodes": [
    {
      "children": [
        1
      ],
      "matrix": [
        0.985223650932312,
        0.0,
        0.0,
        0.0,
        0.0,
        2.1876359633406217e-16,
        -0.985223650932312,
        0.0,
        0.0,
        0.985223650932312,
        2.1876359633406217e-16,
        0.0,
        0.0,
        0.0,
        0.0,
        1.0
      ],
      "name": "Sketchfab_model"
    },
    {
      "children": [
        2,
        3,
        4
      ],
      "name": "baked_mesh.obj.cleaner.materialmerger.gles"
    },
    {
      "mesh": 0,
      "name": "Object_2"
    },
    {
      "mesh": 1,
      "name": "Object_3"
    },
    {
      "mesh": 2,
      "name": "Object_4"
    }
  ],
  "samplers": [
    {
      "magFilter": 9729,
      "minFilter": 9987,
      "wrapS": 10497,
      "wrapT": 10497
    }
  ],
  "scene": 0,
  "scenes": [
    {
      "name": "Sketchfab_Scene",
      "nodes": [
        0
      ]
    }
  ],
  "textures": [
    {
      "sampler": 0,
      "source": 0
    },
    {
      "sampler": 0,
      "source": 1
    }
  ]
}
